<?xml version="1.0" encoding="utf-8"?>
<!-- Generator: Adobe Illustrator 16.0.0, SVG Export Plug-In . SVG Version: 6.00 Build 0)  -->
<!DOCTYPE svg PUBLIC "-//W3C//DTD SVG 1.1//EN" "http://www.w3.org/Graphics/SVG/1.1/DTD/svg11.dtd">
<svg version="1.1" xmlns="http://www.w3.org/2000/svg" xmlns:xlink="http://www.w3.org/1999/xlink" x="0px" y="0px" width="482px"
	 height="394px" viewBox="0 0 482 394" enable-background="new 0 0 482 394" xml:space="preserve">
<g id="Isolation_Mode" display="none">
	<polygon display="inline" fill="#FFFFFF" points="215.325,13.804 202.891,-50.759 307.788,-67.927 305.756,-37.949 288.989,-5.433 
		267.813,15.666 249.867,26.561 235.192,26.561 219.5,15.666 	"/>
	<path display="inline" fill-rule="evenodd" clip-rule="evenodd" fill="#CCCCCC" d="M100.298,28.869
		C88.963,35.403,77.494,41.718,66.33,48.532c-11.203,6.837-22.1,14.172-33.131,21.289c-1.055-0.318-2.112-0.638-3.167-0.956
		c-0.372-9.041-2.159-18.292-0.859-27.086c4.294-29.058,3.741-58.21,2.38-87.296C30.647-64.865,47.85-91.383,70.02-100.896
		c12.037-5.164,24.086-10.784,35.023-17.901c14.966-9.739,29.43-6.136,43.428,0.055c27.88,12.328,39.856,37.085,46.446,64.785
		c5.573,23.431,10.233,47.115,14.326,70.854c4.315,25.034,1.941,22.176-17.929,16.054c-13.948-4.296-28.09-7.956-42.145-11.902
		c-0.378,0.712-0.755,1.424-1.133,2.134c6.517,3.234,12.731,7.522,19.611,9.484c15.327,4.373,31.421,6.337,46.404,11.567
		c21.371,7.461,31.913,26.332,41.884,45.056c7.596,14.261,14.694,28.787,22.445,42.961c6.907,12.633,7.657,26.08,6.511,39.901
		c-0.115,1.38-0.91,3.158-1.981,3.937c-16.317,11.86-32.412,24.077-49.277,35.108c-7.115,4.654-11.405,1.352-11.027-7.49
		c1.383-32.372,3.09-64.729,4.661-97.095c0.369-7.584,0.777-15.168,1-22.758c0.325-11.025-2.639-14.429-13.481-14.157
		c-24.504,0.611-49.015,1.286-73.494,2.539c-25.483,1.306-50.936,3.231-76.385,5.125c-3.958,0.295-7.865,1.721-11.716,2.885
		c-5.826,1.763-7.96,6.085-7.011,11.785c3.446,20.687,7.121,41.336,10.589,62.019c2.922,17.428,5.917,34.853,8.307,52.355
		c0.487,3.571-0.699,10.034-2.655,10.71c-3.781,1.308-8.918,0.155-12.998-1.336c-3.108-1.136-5.842-4.042-8.069-6.72
		C27.769,192.724,14.46,176.161,0.859,159.84c-3.312-3.975-3.648-7.492-1.731-12.315c7.748-19.492,15-39.179,22.608-58.728
		c0.851-2.188,2.386-4.576,4.291-5.815c22.441-14.607,45.069-28.929,67.49-43.564c3.318-2.166,5.818-5.582,8.697-8.42
		C101.575,30.287,100.937,29.579,100.298,28.869z M149.994-65.244c1.089-9.876-2.531-12.859-11.719-9.327
		c-19.135,7.356-38.142,15.056-57.058,22.96c-2.09,0.874-3.992,3.758-4.702,6.097c-3.159,10.427-6,20.959-8.582,31.544
		c-0.47,1.937,0.142,4.845,1.391,6.379C80.937,6.686,96.561,15.606,112.36,24.352c7.624,4.22,13.861,2.024,19.141-3.454
		c4.153-4.308,8.007-9.192,10.823-14.45c8.934-16.672,17.326-33.633,25.898-50.5c0.569-1.116,1.426-2.479,1.205-3.525
		c-0.472-2.222-1.567-4.312-2.409-6.456c-1.749,0.978-4.019,1.549-5.155,3.007c-3.827,4.914-8.395,5.168-10.571-0.531
		C149.717-55.684,150.347-60.652,149.994-65.244z M108.053,26.572c-7.453,12.869-7.453,12.868,3.938,19.45
		c0.435,0.252,0.79,0.641,1.222,0.9c15.5,9.414,32.046,4.332,40.777-12.947c-4.381-3.226-8.691-6.753-13.391-9.648
		c-1.471-0.906-4.838-0.979-5.896,0.05C126.519,32.334,117.917,34.384,108.053,26.572z"/>
	<path display="inline" fill-rule="evenodd" clip-rule="evenodd" fill="#CCCCCC" d="M217.461,11.831
		c3.254,1.791,6.783,3.217,9.717,5.432c13.938,10.517,16.243,11.147,29.4,0.169c9.251-7.72,17.113-17.108,25.546-25.8
		c0.865-0.89,1.77-2.029,2.011-3.187c1.506-7.202,3.209-14.138,10.35-18.245c1.24-0.714,1.572-3.007,3.432-6.874
		c-5.722,1.08-9.724,1.834-14.141,2.666c-1.234-7.043-2.563-14.633-3.884-22.17c-25.766,2.496-50.924,4.932-76.366,7.395
		c-3.923-12.242-8.148-25.158-12.107-38.154c-0.427-1.399,0.15-3.771,1.163-4.842c12.018-12.731,25.911-21.125,44.341-17.35
		c7.785,1.594,15.015,1.721,22.891-0.947c14.982-5.071,28.688-1.112,39.697,10.1c18.478,18.816,28.68,40.719,23.742,67.902
		c-3.265,17.977-15.296,29.821-28.677,40.321c-3.165,2.484-9.153,1.27-13.8,2.016c-2.066,0.332-4.93,0.767-5.762,2.153
		c-0.692,1.158,0.762,3.938,1.763,5.721c6.304,11.229,17.681,16.247,27.881,22.816c15.267,9.83,30.835,19.365,45.04,30.589
		c5.659,4.47,8.567,12.86,11.77,19.903c5.126,11.278,9.254,23.006,14.184,34.381c4.289,9.896,1.572,18.545-4.674,26.102
		c-12.307,14.893-28.307,25.256-44.99,34.526c-7.186,3.992-22.615,1.916-28.209-3.589c-1.348-1.326-2.237-4.134-1.899-6.002
		c4.704-26.095-3.188-48.9-17.333-70.402c-9.471-14.399-17.435-29.856-27.667-43.66c-4.665-6.293-12.867-10.287-20.023-14.334
		c-10.396-5.881-11.777-7.309-7.639-18.146c3.127-8.189-1.224-12.56-7.891-16.518C216.037,13.146,216.748,12.489,217.461,11.831z
		 M267.813,15.666c-12.858,8.843-22.567,22.145-38.538,10.208c-4.793,12.067-4.675,12.322,5.445,17.638
		c5.774,3.032,11.469,6.213,17.235,9.348c8.629-7.116,17.137-14.134,25.985-21.432C274.373,25.874,271.207,20.947,267.813,15.666z"
		/>
	<path display="inline" fill-rule="evenodd" clip-rule="evenodd" fill="#CCCCCC" d="M219.5,80.327
		c-1.92,36.955-3.869,74.479-5.829,112.202c-47.52,1.485-94.086,2.942-141.292,4.417c-5.372-31.785-10.848-65.406-16.872-98.928
		c-1.358-7.553,0.305-9.881,8.148-10.907c35.228-4.602,70.54-7.08,106.062-6.807C185.832,80.43,201.949,80.327,219.5,80.327z"/>
	<path display="inline" fill-rule="evenodd" clip-rule="evenodd" fill="#CCCCCC" d="M212.369,202.264
		c0.76,8.906-1.831,12.013-10.591,12.084c-18.964,0.154-37.901,2.441-56.872,2.901c-22.966,0.56-45.957,0.134-69.215,0.134
		c-0.525-5.046-0.155-9.842,8.074-10.142c41.524-1.508,83.039-3.292,124.557-4.972C209.538,202.221,210.757,202.264,212.369,202.264
		z"/>
	<path display="inline" fill-rule="evenodd" clip-rule="evenodd" fill="#FFFFFF" d="M149.994-65.244
		c0.353,4.592-0.277,9.561,1.298,13.687c2.176,5.699,6.745,5.445,10.571,0.531c1.136-1.458,3.406-2.029,5.155-3.007
		c0.841,2.144,1.937,4.233,2.409,6.456c0.222,1.046-0.636,2.409-1.205,3.525c-8.572,16.867-16.964,33.828-25.898,50.5
		c-2.816,5.258-6.67,10.143-10.823,14.45c-5.28,5.479-11.517,7.674-19.141,3.454C96.561,15.606,80.937,6.686,69.324-7.59
		c-1.249-1.534-1.861-4.443-1.391-6.379c2.582-10.585,5.423-21.118,8.582-31.544c0.71-2.339,2.612-5.224,4.702-6.097
		c18.916-7.904,37.923-15.604,57.058-22.96C147.463-78.104,151.083-75.121,149.994-65.244z"/>
	<path display="inline" fill-rule="evenodd" clip-rule="evenodd" fill="#FFFFFF" d="M108.053,26.572
		c9.863,7.812,18.465,5.762,26.649-2.195c1.059-1.029,4.426-0.956,5.896-0.05c4.699,2.896,9.01,6.423,13.391,9.648
		c-8.73,17.279-25.277,22.361-40.777,12.947c-0.432-0.26-0.787-0.648-1.222-0.9C100.601,39.44,100.601,39.441,108.053,26.572z"/>
	<path display="inline" fill-rule="evenodd" clip-rule="evenodd" fill="#FFFFFF" d="M267.813,15.666
		c3.394,5.281,6.56,10.208,10.128,15.762c-8.848,7.298-17.356,14.315-25.985,21.432c-5.767-3.135-11.461-6.315-17.235-9.348
		c-10.121-5.315-10.238-5.57-5.445-17.638C245.246,37.811,254.956,24.509,267.813,15.666z"/>
</g>
<g id="export">
	<polygon fill="#FFFFFF" points="278.325,155.804 265.891,91.241 370.788,74.073 368.756,104.051 351.989,136.567 330.813,157.666 
		312.867,168.561 298.192,168.561 282.5,157.666 	"/>
	<path fill-rule="evenodd" clip-rule="evenodd" fill="#D82427" d="M163.298,170.869c-11.335,6.534-22.804,12.849-33.968,19.663
		c-11.203,6.837-22.1,14.172-33.131,21.289c-1.055-0.318-2.112-0.638-3.167-0.956c-0.372-9.041-2.159-18.292-0.859-27.086
		c4.294-29.058,3.741-58.211,2.38-87.296c-0.905-19.348,16.298-45.866,38.468-55.379c12.037-5.164,24.086-10.784,35.023-17.901
		c14.966-9.739,29.43-6.136,43.428,0.055c27.88,12.328,39.856,37.085,46.446,64.785c5.573,23.432,10.233,47.115,14.326,70.854
		c4.315,25.034,1.941,22.176-17.929,16.054c-13.948-4.296-28.09-7.956-42.145-11.902c-0.378,0.712-0.755,1.424-1.133,2.134
		c6.517,3.234,12.731,7.522,19.611,9.484c15.327,4.373,31.421,6.337,46.404,11.567c21.371,7.461,31.913,26.332,41.884,45.056
		c7.596,14.261,14.694,28.787,22.445,42.961c6.907,12.633,7.657,26.08,6.511,39.901c-0.115,1.38-0.91,3.158-1.981,3.937
		c-16.317,11.86-32.412,24.077-49.277,35.108c-7.115,4.654-11.405,1.352-11.027-7.49c1.383-32.372,3.09-64.729,4.661-97.095
		c0.369-7.584,0.777-15.168,1-22.758c0.325-11.025-2.639-14.429-13.481-14.157c-24.504,0.611-49.015,1.286-73.494,2.539
		c-25.483,1.306-50.936,3.231-76.385,5.125c-3.958,0.295-7.865,1.721-11.716,2.885c-5.826,1.763-7.96,6.085-7.011,11.785
		c3.446,20.687,7.121,41.336,10.589,62.019c2.922,17.428,5.917,34.853,8.307,52.355c0.487,3.571-0.699,10.034-2.655,10.71
		c-3.781,1.308-8.918,0.155-12.998-1.336c-3.108-1.136-5.842-4.042-8.069-6.72c-13.586-16.335-26.895-32.897-40.496-49.219
		c-3.312-3.975-3.648-7.492-1.731-12.315c7.748-19.492,15-39.179,22.608-58.728c0.851-2.188,2.386-4.576,4.291-5.815
		c22.441-14.607,45.069-28.929,67.49-43.564c3.318-2.166,5.818-5.582,8.697-8.42C164.575,172.287,163.937,171.579,163.298,170.869z
		 M212.994,76.756c1.089-9.876-2.531-12.859-11.719-9.327c-19.135,7.356-38.142,15.056-57.058,22.96
		c-2.09,0.874-3.992,3.758-4.702,6.097c-3.159,10.427-6,20.959-8.582,31.545c-0.47,1.936,0.142,4.845,1.391,6.379
		c11.613,14.275,27.237,23.196,43.036,31.941c7.624,4.22,13.861,2.024,19.141-3.454c4.153-4.308,8.007-9.192,10.823-14.45
		c8.934-16.672,17.326-33.633,25.898-50.5c0.569-1.116,1.426-2.479,1.205-3.525c-0.472-2.222-1.567-4.312-2.409-6.456
		c-1.749,0.978-4.019,1.549-5.155,3.007c-3.827,4.914-8.395,5.168-10.571-0.531C212.717,86.316,213.347,81.348,212.994,76.756z
		 M171.053,168.572c-7.453,12.869-7.453,12.868,3.938,19.45c0.435,0.252,0.79,0.641,1.222,0.9
		c15.5,9.414,32.046,4.332,40.777-12.947c-4.381-3.226-8.691-6.753-13.391-9.648c-1.471-0.906-4.838-0.979-5.896,0.05
		C189.519,174.334,180.917,176.384,171.053,168.572z"/>
	<path fill-rule="evenodd" clip-rule="evenodd" fill="#D82427" d="M280.461,153.831c3.254,1.791,6.783,3.217,9.717,5.432
		c13.938,10.517,16.243,11.147,29.4,0.169c9.251-7.72,17.113-17.108,25.546-25.8c0.865-0.89,1.77-2.028,2.011-3.187
		c1.506-7.201,3.209-14.139,10.35-18.245c1.24-0.714,1.572-3.007,3.432-6.874c-5.722,1.08-9.724,1.834-14.141,2.666
		c-1.234-7.043-2.563-14.633-3.884-22.17c-25.766,2.496-50.924,4.932-76.366,7.395c-3.923-12.242-8.148-25.158-12.107-38.154
		c-0.427-1.399,0.15-3.771,1.163-4.842c12.018-12.731,25.911-21.125,44.341-17.35c7.785,1.594,15.015,1.721,22.891-0.947
		c14.982-5.071,28.688-1.112,39.697,10.1c18.478,18.816,28.68,40.719,23.742,67.902c-3.265,17.977-15.296,29.821-28.677,40.321
		c-3.165,2.484-9.153,1.27-13.8,2.016c-2.066,0.332-4.93,0.767-5.762,2.153c-0.692,1.158,0.762,3.938,1.763,5.721
		c6.304,11.229,17.681,16.247,27.881,22.816c15.267,9.83,30.835,19.365,45.04,30.589c5.659,4.47,8.567,12.86,11.77,19.903
		c5.126,11.278,9.254,23.006,14.184,34.381c4.289,9.896,1.572,18.545-4.674,26.102c-12.307,14.893-28.307,25.256-44.99,34.526
		c-7.186,3.992-22.615,1.916-28.209-3.589c-1.348-1.326-2.237-4.134-1.899-6.002c4.704-26.095-3.188-48.9-17.333-70.402
		c-9.471-14.399-17.435-29.856-27.667-43.66c-4.665-6.293-12.867-10.287-20.023-14.334c-10.396-5.881-11.777-7.309-7.639-18.146
		c3.127-8.189-1.224-12.56-7.891-16.518C279.037,155.146,279.748,154.489,280.461,153.831z M330.813,157.666
		c-12.858,8.843-22.567,22.145-38.538,10.208c-4.793,12.067-4.675,12.322,5.445,17.638c5.774,3.032,11.469,6.213,17.235,9.348
		c8.629-7.116,17.137-14.134,25.985-21.432C337.373,167.874,334.207,162.947,330.813,157.666z"/>
	<path fill-rule="evenodd" clip-rule="evenodd" fill="#D82427" d="M282.5,222.327c-1.92,36.955-3.869,74.479-5.829,112.202
		c-47.52,1.485-94.086,2.942-141.292,4.417c-5.372-31.785-10.848-65.406-16.872-98.928c-1.358-7.553,0.305-9.881,8.148-10.907
		c35.228-4.602,70.54-7.08,106.062-6.807C248.832,222.43,264.949,222.327,282.5,222.327z"/>
	<path fill-rule="evenodd" clip-rule="evenodd" fill="#D82427" d="M275.369,344.264c0.76,8.906-1.831,12.013-10.591,12.084
		c-18.964,0.154-37.901,2.441-56.872,2.901c-22.966,0.56-45.957,0.134-69.215,0.134c-0.525-5.046-0.155-9.842,8.074-10.142
		c41.524-1.508,83.039-3.292,124.557-4.972C272.538,344.221,273.757,344.264,275.369,344.264z"/>
	<path fill-rule="evenodd" clip-rule="evenodd" fill="#FFFFFF" d="M212.994,76.756c0.353,4.592-0.277,9.561,1.298,13.687
		c2.176,5.699,6.745,5.445,10.571,0.531c1.136-1.458,3.406-2.029,5.155-3.007c0.841,2.144,1.937,4.233,2.409,6.456
		c0.222,1.046-0.636,2.409-1.205,3.525c-8.572,16.867-16.964,33.828-25.898,50.5c-2.816,5.258-6.67,10.143-10.823,14.45
		c-5.28,5.479-11.517,7.674-19.141,3.454c-15.799-8.745-31.423-17.666-43.036-31.941c-1.249-1.534-1.861-4.443-1.391-6.379
		c2.582-10.586,5.423-21.118,8.582-31.545c0.71-2.339,2.612-5.224,4.702-6.097c18.916-7.904,37.923-15.604,57.058-22.96
		C210.463,63.896,214.083,66.879,212.994,76.756z"/>
	<path fill-rule="evenodd" clip-rule="evenodd" fill="#FFFFFF" d="M171.053,168.572c9.863,7.812,18.465,5.762,26.649-2.195
		c1.059-1.029,4.426-0.956,5.896-0.05c4.699,2.896,9.01,6.423,13.391,9.648c-8.73,17.279-25.277,22.361-40.777,12.947
		c-0.432-0.26-0.787-0.648-1.222-0.9C163.601,181.44,163.601,181.441,171.053,168.572z"/>
	<path fill-rule="evenodd" clip-rule="evenodd" fill="#FFFFFF" d="M330.813,157.666c3.394,5.281,6.56,10.208,10.128,15.762
		c-8.848,7.298-17.356,14.315-25.985,21.432c-5.767-3.135-11.461-6.315-17.235-9.348c-10.121-5.315-10.238-5.57-5.445-17.638
		C308.246,179.811,317.956,166.509,330.813,157.666z"/>
</g>
</svg>
